<svg width="58" height="45" viewBox="0 0 58 45" fill="none" xmlns="http://www.w3.org/2000/svg">
<path d="M55.9525 7.1734H33.4593L23.8425 0.269003C23.5987 0.0939096 23.3061 -0.000186453 23.006 2.77382e-07H1.43468C1.05418 2.77382e-07 0.689263 0.151154 0.420208 0.420209C0.151154 0.689264 0 1.05418 0 1.43468V37.3017C0.00224018 39.2035 0.758727 41.0268 2.10352 42.3716C3.4483 43.7164 5.27159 44.4729 7.1734 44.4751H50.2138C52.1156 44.4729 53.9389 43.7164 55.2837 42.3716C56.6285 41.0268 57.385 39.2035 57.3872 37.3017V8.60808C57.3872 8.22758 57.2361 7.86267 56.967 7.59361C56.698 7.32456 56.333 7.1734 55.9525 7.1734ZM54.5179 37.3017C54.5166 38.4428 54.0627 39.5368 53.2559 40.3437C52.449 41.1506 51.3549 41.6045 50.2138 41.6057H7.1734C6.03228 41.6045 4.93826 41.1506 4.13137 40.3437C3.32448 39.5368 2.87061 38.4428 2.86936 37.3017V2.86936H22.5444L32.1612 9.77376C32.405 9.94887 32.6975 10.043 32.9977 10.0428H54.5179V37.3017ZM21.5202 21.3767V22.9549H20.0855C19.705 22.9549 19.3401 23.106 19.0711 23.3751C18.802 23.6442 18.6508 24.0091 18.6508 24.3896V32.9977C18.6521 34.1388 19.106 35.2328 19.9129 36.0397C20.7197 36.8466 21.8138 37.3004 22.9549 37.3017H34.4323C35.5735 37.3004 36.6675 36.8466 37.4744 36.0397C38.2813 35.2328 38.7351 34.1388 38.7364 32.9977V24.3896C38.7364 24.0091 38.5852 23.6442 38.3162 23.3751C38.0471 23.106 37.6822 22.9549 37.3017 22.9549H35.867V21.3767C35.867 19.4742 35.1112 17.6497 33.766 16.3044C32.4207 14.9591 30.5961 14.2033 28.6936 14.2033C26.7911 14.2033 24.9665 14.9591 23.6213 16.3044C22.276 17.6497 21.5202 19.4742 21.5202 21.3767ZM34.4323 25.8243H35.867V32.9977C35.8665 33.378 35.7152 33.7426 35.4463 34.0116C35.1773 34.2805 34.8127 34.4318 34.4323 34.4323H22.9549C22.5745 34.4318 22.2099 34.2805 21.941 34.0116C21.672 33.7426 21.5207 33.378 21.5202 32.9977V25.8243H34.4323ZM32.9977 21.3767V22.9549H24.3896V21.3767C24.3896 20.2352 24.843 19.1405 25.6502 18.3333C26.4574 17.5262 27.5521 17.0727 28.6936 17.0727C29.8351 17.0727 30.9299 17.5262 31.737 18.3333C32.5442 19.1405 32.9977 20.2352 32.9977 21.3767Z" fill="#107B75"/>
</svg>
