<svg width="56" height="59" viewBox="0 0 56 59" fill="none" xmlns="http://www.w3.org/2000/svg">
<path d="M37.5497 20.1621H18.8658C17.4044 20.1621 16.0028 20.7427 14.9694 21.776C13.936 22.8094 13.3555 24.211 13.3555 25.6724V34.7394C13.3555 36.2008 13.936 37.6024 14.9694 38.6358C16.0028 39.6691 17.4044 40.2497 18.8658 40.2497H37.5497C39.0112 40.2497 40.4127 39.6691 41.4461 38.6358C42.4795 37.6024 43.0601 36.2008 43.0601 34.7394V25.6724C43.0601 24.211 42.4795 22.8094 41.4461 21.776C40.4127 20.7427 39.0112 20.1621 37.5497 20.1621ZM40.5467 34.7394C40.5442 35.5334 40.2277 36.2943 39.6662 36.8558C39.1047 37.4173 38.3438 37.7339 37.5497 37.7364H18.8658C18.0717 37.7339 17.3109 37.4173 16.7494 36.8558C16.1878 36.2943 15.8713 35.5334 15.8688 34.7394V25.6724C15.8682 25.2716 15.9489 24.8747 16.1059 24.5059L27.4206 31.7329C27.657 31.8841 27.9318 31.9644 28.2125 31.9644C28.4932 31.9644 28.768 31.8841 29.0044 31.7329L40.3096 24.4964C40.4679 24.8682 40.5486 25.2684 40.5467 25.6724V34.7394Z" fill="#C231DA"/>
<path d="M1.41566 21.5466C-0.791152 28.1896 -0.406903 35.421 2.49145 41.7927C5.38981 48.1644 10.5883 53.2059 17.0458 55.9076C23.5033 58.6094 30.7431 58.7718 37.3153 56.3625C43.8876 53.9531 49.3069 49.1498 52.4882 42.9145C54.1987 39.5321 55.2054 35.8378 55.4473 32.0551H51.4449C51.1457 36.0773 49.829 39.9574 47.6186 43.331C45.4081 46.7047 42.3765 49.4611 38.8083 51.3414C35.2401 53.2218 31.2526 54.1643 27.2201 54.0805C23.1877 53.9967 19.2428 52.8893 15.7558 50.8623C12.8876 49.2223 10.409 46.9799 8.49089 44.2898C5.02609 39.4973 3.46992 33.5865 4.12568 27.7093C4.78143 21.832 7.60212 16.4095 12.038 12.4986C13.7866 10.9653 15.7441 9.68803 17.8518 8.70496L20.0142 7.69963V10.6018C20.0145 10.7719 20.0605 10.9388 20.1475 11.085C20.2345 11.2312 20.3591 11.3514 20.5085 11.4328C20.6578 11.5143 20.8263 11.5541 20.9963 11.548C21.1663 11.542 21.3316 11.4903 21.4748 11.3985L28.5785 6.80811C28.7056 6.72102 28.8096 6.60425 28.8815 6.46791C28.9533 6.33157 28.9909 6.17978 28.9909 6.02566C28.9909 5.87155 28.9533 5.71975 28.8815 5.58342C28.8096 5.44708 28.7056 5.33031 28.5785 5.24322L21.4938 0.169157C21.3516 0.0705348 21.1852 0.0126803 21.0125 0.00185756C20.8398 -0.00896521 20.6674 0.0276562 20.5141 0.107757C20.3607 0.187857 20.2322 0.308385 20.1424 0.45629C20.0526 0.604195 20.005 0.773842 20.0047 0.946863V3.64987L19.4641 3.83007C15.2959 5.19625 11.499 7.50552 8.36864 10.5783C5.23832 13.651 2.85898 17.4044 1.41566 21.5466Z" fill="#C231DA"/>
</svg>
