<svg width="56" height="57" viewBox="0 0 56 57" fill="none" xmlns="http://www.w3.org/2000/svg">
<path d="M31.3519 31.0088H28.2465L20.7305 51.2166H23.791L31.3519 31.0088Z" fill="#A52626"/>
<path d="M32.2988 37.1754L42.1999 41.136L32.2988 45.0514V48.1566L45.9805 42.7111V39.5609L32.2988 34.0703V37.1754Z" fill="#A52626"/>
<path d="M19.7853 45.0514L9.88397 41.136L19.7853 37.1754V34.0703L6.05859 39.5609V42.7111L19.7853 48.1566V45.0514Z" fill="#A52626"/>
<path d="M0.359375 6.38206C0.359375 13.7678 0.359375 33.7574 0.359375 51.3592C0.359375 54.4687 2.89095 57.0003 6.00047 57.0003H50.136C53.2455 57.0003 55.7771 54.4687 55.7771 51.3592C55.7771 33.7576 55.7771 13.7664 55.7771 6.38206C55.7771 3.27254 53.2455 0.743164 50.136 0.743164H6.00047C2.89095 0.743164 0.359375 3.27254 0.359375 6.38206ZM53.5268 51.3592C53.5268 53.2293 52.0061 54.75 50.136 54.75H6.00047C4.13036 54.75 2.60966 53.2293 2.60966 51.3592V12.1726H53.5268V51.3592ZM53.5268 6.38206V9.92231H2.60966V6.38206C2.60966 4.51415 4.13036 2.99345 6.00047 2.99345H50.136C52.0061 2.99345 53.5268 4.51415 53.5268 6.38206Z" fill="#A52626"/>
<path d="M32.172 7.86161H35.0728C35.6947 7.86161 36.1979 7.35838 36.1979 6.73647C36.1979 6.11457 35.6947 5.61133 35.0728 5.61133H32.172C31.5501 5.61133 31.0469 6.11457 31.0469 6.73647C31.0469 7.35838 31.5501 7.86161 32.172 7.86161Z" fill="#A52626"/>
<path d="M38.3517 7.86161H41.2525C41.8744 7.86161 42.3776 7.35838 42.3776 6.73647C42.3776 6.11457 41.8744 5.61133 41.2525 5.61133H38.3517C37.7298 5.61133 37.2266 6.11457 37.2266 6.73647C37.2266 7.35838 37.7298 7.86161 38.3517 7.86161Z" fill="#A52626"/>
<path d="M44.5294 7.86161H47.4302C48.0521 7.86161 48.5553 7.35838 48.5553 6.73647C48.5553 6.11457 48.0521 5.61133 47.4302 5.61133H44.5294C43.9075 5.61133 43.4043 6.11457 43.4043 6.73647C43.4043 7.35838 43.9075 7.86161 44.5294 7.86161Z" fill="#A52626"/>
<path d="M28.9513 25.008C31.94 25.008 34.3727 27.4406 34.3727 30.4315C34.3727 31.0534 34.8759 31.5566 35.4978 31.5566C36.1197 31.5566 36.6229 31.0534 36.6229 30.4315C36.6229 27.4406 39.0556 25.008 42.0465 25.008C42.6684 25.008 43.1716 24.5047 43.1716 23.8828C43.1716 23.2609 42.6684 22.7577 42.0465 22.7577C39.0556 22.7577 36.6229 20.325 36.6229 17.3341C36.6229 16.7122 36.1197 16.209 35.4978 16.209C34.8759 16.209 34.3727 16.7122 34.3727 17.3341C34.3727 20.325 31.94 22.7577 28.9513 22.7577C28.3294 22.7577 27.8262 23.2609 27.8262 23.8828C27.8262 24.5047 28.3294 25.008 28.9513 25.008ZM35.4978 21.3315C36.1351 22.3709 37.0097 23.2455 38.0492 23.8828C37.0097 24.5201 36.1351 25.3947 35.4978 26.4342C34.8627 25.3947 33.9859 24.5201 32.9465 23.8828C33.9859 23.2455 34.8627 22.3709 35.4978 21.3315Z" fill="#A52626"/>
<path d="M41.1798 19.367C41.883 19.367 42.4544 19.9384 42.4544 20.6416C42.4544 21.2635 42.9576 21.7668 43.5795 21.7668C44.2015 21.7668 44.7047 21.2635 44.7047 20.6416C44.7047 19.9384 45.2783 19.367 45.9815 19.3648C45.9837 19.3648 45.9837 19.3648 45.9859 19.3648C45.9881 19.3648 45.9881 19.3648 45.9903 19.3648C45.9925 19.3648 45.9925 19.3648 45.9925 19.3648C45.9947 19.3648 45.9947 19.3648 45.9947 19.3648H45.9968C45.9985 19.3648 45.9996 19.3648 46.0012 19.3648C46.0034 19.3648 46.0034 19.3648 46.0034 19.3648H46.0056C46.0073 19.3648 46.0084 19.3648 46.01 19.3648C46.0122 19.3648 46.0122 19.3648 46.0144 19.3648H46.0166C46.621 19.3451 47.1044 18.8484 47.1044 18.2419C47.1044 18.2397 47.1044 18.2397 47.1044 18.2397C47.1044 17.6178 46.6012 17.1146 45.9793 17.1146C45.2761 17.1146 44.7047 16.5432 44.7047 15.84C44.7047 15.2181 44.2015 14.7148 43.5795 14.7148C42.9576 14.7148 42.4544 15.2181 42.4544 15.84C42.4544 16.5212 41.916 17.0816 41.2414 17.1146C41.2216 17.1146 41.2018 17.1146 41.182 17.1146V17.1168C41.1798 17.1168 41.1798 17.1168 41.1776 17.1168C40.5579 17.1168 40.0547 17.6222 40.0547 18.2419C40.0547 18.8638 40.5579 19.367 41.1798 19.367Z" fill="#A52626"/>
</svg>
