<svg width="56" height="45" viewBox="0 0 56 45" fill="none" xmlns="http://www.w3.org/2000/svg">
<path d="M26.8299 17.999H19.7513C19.2468 17.999 18.8379 18.408 18.8379 18.9124V38.7781C18.8379 39.2826 19.2468 39.6915 19.7513 39.6915H26.8299C27.3343 39.6915 27.7432 39.2826 27.7432 38.7781V18.9124C27.7432 18.408 27.3343 17.999 26.8299 17.999Z" fill="#9B6717"/>
<path d="M13.5857 28.6172H6.50712C6.00268 28.6172 5.59375 29.0261 5.59375 29.5306V38.7784C5.59375 39.2828 6.00268 39.6918 6.50712 39.6918H13.5857C14.0902 39.6918 14.4991 39.2828 14.4991 38.7784V29.5306C14.4991 29.0261 14.0902 28.6172 13.5857 28.6172Z" fill="#9B6717"/>
<path d="M40.074 24.6211H32.9954C32.491 24.6211 32.082 25.03 32.082 25.5345V38.7783C32.082 39.2827 32.491 39.6917 32.9954 39.6917H40.074C40.5784 39.6917 40.9874 39.2827 40.9874 38.7783V25.5345C40.9874 25.03 40.5784 24.6211 40.074 24.6211Z" fill="#9B6717"/>
<path d="M50.7203 0.000456993C49.8615 -0.000113926 49.0169 0.219704 48.2673 0.638882C47.5177 1.05806 46.8882 1.66257 46.439 2.39459C45.9898 3.12661 45.736 3.96164 45.7018 4.8198C45.6676 5.67797 45.8542 6.53055 46.2437 7.29598L41.386 11.3674C40.8962 10.7873 40.2811 10.326 39.587 10.0183C38.8929 9.71059 38.138 9.56449 37.3792 9.59103C36.6204 9.61757 35.8776 9.81606 35.2067 10.1715C34.5358 10.527 33.9544 11.0301 33.5063 11.643L27.9576 8.06698C27.9638 7.96583 27.9677 7.8641 27.9677 7.76146C27.9683 6.9994 27.7955 6.2472 27.4624 5.56182C27.1292 4.87643 26.6445 4.27584 26.0449 3.80552C25.4453 3.3352 24.7465 3.00749 24.0015 2.8472C23.2565 2.68691 22.4848 2.69824 21.7448 2.88034C21.0048 3.06244 20.316 3.41053 19.7304 3.89826C19.1449 4.38598 18.678 5.00055 18.3651 5.69542C18.0523 6.39029 17.9016 7.14724 17.9246 7.90895C17.9476 8.67066 18.1435 9.41716 18.4977 10.0919L12.7478 15.7124C11.6269 15.1512 10.3368 15.0288 9.13028 15.3693C7.92379 15.7097 6.88795 16.4885 6.22575 17.5529C5.56356 18.6173 5.32275 19.8907 5.55053 21.1234C5.77831 22.3562 6.45825 23.4594 7.4571 24.2169C8.45595 24.9744 9.70169 25.3316 10.9502 25.2184C12.1986 25.1052 13.3599 24.5299 14.2062 23.6051C15.0526 22.6804 15.5231 21.4729 15.5255 20.2193C15.5279 18.9657 15.0621 17.7564 14.2193 16.8284L19.6351 11.5346C20.2174 12.0467 20.9105 12.4168 21.6599 12.616C22.4094 12.8151 23.1948 12.8378 23.9545 12.6822C24.7142 12.5267 25.4274 12.1971 26.0383 11.7195C26.6492 11.2418 27.141 10.6291 27.4752 9.92934L32.7072 13.301C32.5014 14.0596 32.4765 14.8559 32.6345 15.6259C32.7925 16.3959 33.129 17.118 33.6168 17.7343C34.1047 18.3506 34.7304 18.8438 35.4436 19.1742C36.1568 19.5047 36.9375 19.6632 37.7231 19.6369C38.5087 19.6107 39.2771 19.4005 39.9667 19.0233C40.6563 18.646 41.2477 18.1122 41.6934 17.4647C42.1391 16.8173 42.4266 16.0743 42.5329 15.2955C42.6392 14.5167 42.5612 13.7239 42.3053 12.9807L47.3556 8.74801C47.9604 9.29442 48.6892 9.68538 49.4789 9.88713C50.2687 10.0889 51.0956 10.0954 51.8884 9.90602C52.6812 9.71668 53.416 9.33719 54.0294 8.80034C54.6427 8.26348 55.1161 7.5854 55.4088 6.82465C55.7014 6.0639 55.8045 5.24334 55.7091 4.43384C55.6136 3.62435 55.3226 2.85025 54.8611 2.17839C54.3996 1.50653 53.7815 0.957112 53.0601 0.577582C52.3388 0.198052 51.5359 -0.000181395 50.7208 1.24549e-07L50.7203 0.000456993Z" fill="#9B6717"/>
<path d="M45.4132 42.2038H1.82674V5.40067C1.82674 5.15843 1.73051 4.92611 1.55922 4.75482C1.38793 4.58353 1.15561 4.4873 0.913368 4.4873C0.671128 4.4873 0.438809 4.58353 0.267519 4.75482C0.0962295 4.92611 0 5.15843 0 5.40067V43.0771C0 43.5815 0.38213 44.0305 0.886538 44.0305H45.4132C45.6555 44.0305 45.8878 43.9343 46.0591 43.763C46.2304 43.5917 46.3266 43.3594 46.3266 43.1172C46.3266 42.8749 46.2304 42.6426 46.0591 42.4713C45.8878 42.3 45.6555 42.2038 45.4132 42.2038Z" fill="#9B6717"/>
</svg>
