<svg width="57" height="57" viewBox="0 0 57 57" fill="none" xmlns="http://www.w3.org/2000/svg">
<circle opacity="0.1" cx="28.6941" cy="28.3054" r="27.8054" stroke="white"/>
<path d="M33.2523 25.1289C34.7903 25.1289 36.2654 25.7399 37.3529 26.8274C38.4405 27.915 39.0515 29.39 39.0515 30.9281V37.6938H35.1853V30.9281C35.1853 30.4154 34.9817 29.9237 34.6192 29.5612C34.2566 29.1987 33.765 28.995 33.2523 28.995C32.7396 28.995 32.2479 29.1987 31.8854 29.5612C31.5229 29.9237 31.3192 30.4154 31.3192 30.9281V37.6938H27.4531V30.9281C27.4531 29.39 28.0641 27.915 29.1517 26.8274C30.2392 25.7399 31.7143 25.1289 33.2523 25.1289V25.1289Z" stroke="white" stroke-linecap="round" stroke-linejoin="round"/>
<path d="M23.5868 26.0977H19.7207V37.696H23.5868V26.0977Z" stroke="white" stroke-linecap="round" stroke-linejoin="round"/>
<path d="M21.6538 23.1972C22.7214 23.1972 23.5868 22.3317 23.5868 21.2641C23.5868 20.1965 22.7214 19.3311 21.6538 19.3311C20.5862 19.3311 19.7207 20.1965 19.7207 21.2641C19.7207 22.3317 20.5862 23.1972 21.6538 23.1972Z" stroke="white" stroke-linecap="round" stroke-linejoin="round"/>
</svg>
