<svg width="23" height="20" viewBox="0 0 23 20" fill="none" xmlns="http://www.w3.org/2000/svg">
<path opacity="0.2" d="M7.29762 8.62965C6.73604 8.46797 6.17446 8.38593 5.62819 8.38593C4.78462 8.38593 4.08073 8.57871 3.53493 8.81477C4.06111 6.88846 5.32515 3.56466 7.84318 3.19035C8.07638 3.15567 8.26748 2.98705 8.3311 2.76007L8.88144 0.791668C8.92784 0.625202 8.90033 0.447017 8.80538 0.302556C8.71043 0.158094 8.55783 0.061707 8.38682 0.0382679C8.20098 0.0129154 8.01156 0 7.82381 0C4.80136 0 1.80809 3.15471 0.545011 7.67176C-0.196429 10.3218 -0.413839 14.306 1.4125 16.8137C2.43449 18.217 3.9255 18.9663 5.84416 19.0412C5.85205 19.0414 5.85971 19.0416 5.8676 19.0416C8.23495 19.0416 10.3342 17.4473 10.9728 15.1649C11.3543 13.8004 11.1818 12.3694 10.4868 11.1345C9.79915 9.91354 8.66666 9.02357 7.29762 8.62965Z" fill="url(#paint0_linear_51_3165)"/>
<path opacity="0.2" d="M22.1155 11.1348C21.4278 9.91354 20.2953 9.02357 18.9263 8.62965C18.3647 8.46797 17.8032 8.38593 17.2571 8.38593C16.4135 8.38593 15.7094 8.57871 15.1636 8.81477C15.6898 6.88846 16.9538 3.56466 19.4721 3.19035C19.7053 3.15567 19.8962 2.98705 19.96 2.76007L20.5104 0.791668C20.5568 0.625202 20.5293 0.447017 20.4343 0.302556C20.3396 0.158094 20.187 0.061707 20.0158 0.0382679C19.8302 0.0129154 19.6407 0 19.4527 0C16.4303 0 13.437 3.15471 12.1737 7.67176C11.4325 10.3218 11.2151 14.306 13.0417 16.8142C14.0634 18.2172 15.5547 18.9668 17.4731 19.0414C17.481 19.0416 17.4886 19.0419 17.4968 19.0419C19.8639 19.0419 21.9633 17.4475 22.6019 15.1651C22.983 13.8006 22.8103 12.3694 22.1155 11.1348Z" fill="url(#paint1_linear_51_3165)"/>
<defs>
<linearGradient id="paint0_linear_51_3165" x1="15.0655" y1="-1.80555e-06" x2="-8.45588" y2="1.94211" gradientUnits="userSpaceOnUse">
<stop stop-color="#5319A6"/>
<stop offset="1" stop-color="#7635D4"/>
</linearGradient>
<linearGradient id="paint1_linear_51_3165" x1="26.6942" y1="-1.80557e-06" x2="3.17312" y2="1.94204" gradientUnits="userSpaceOnUse">
<stop stop-color="#5319A6"/>
<stop offset="1" stop-color="#7635D4"/>
</linearGradient>
</defs>
</svg>
