<svg width="57" height="57" viewBox="0 0 57 57" fill="none" xmlns="http://www.w3.org/2000/svg">
<circle opacity="0.1" cx="28.3054" cy="28.3054" r="27.8054" stroke="white"/>
<path d="M37.7417 20.7663C36.8382 21.4036 35.8378 21.8911 34.7791 22.2099C34.2108 21.5565 33.4556 21.0934 32.6156 20.8832C31.7756 20.6731 30.8913 20.7259 30.0823 21.0347C29.2733 21.3435 28.5787 21.8933 28.0924 22.6097C27.606 23.3261 27.3514 24.1746 27.363 25.0404V25.984C25.7049 26.027 24.0619 25.6592 22.5804 24.9135C21.0988 24.1678 19.8247 23.0672 18.8714 21.7098C18.8714 21.7098 15.0973 30.2015 23.589 33.9755C21.6458 35.2945 19.331 35.9559 16.9844 35.8626C25.476 40.5801 35.8547 35.8626 35.8547 25.0121C35.8538 24.7493 35.8285 24.4872 35.7792 24.229C36.7421 23.2794 37.4217 22.0804 37.7417 20.7663V20.7663Z" stroke="white" stroke-width="1.36667" stroke-linecap="round" stroke-linejoin="round"/>
</svg>
